<?xml version="1.0" encoding="UTF-8"?>
<!DOCTYPE svg PUBLIC "-//W3C//DTD SVG 1.1//EN" "http://www.w3.org/Graphics/SVG/1.1/DTD/svg11.dtd">
<svg xmlns="http://www.w3.org/2000/svg" version="1.1" width="1181px" height="1181px" style="shape-rendering:geometricPrecision; text-rendering:geometricPrecision; image-rendering:optimizeQuality; fill-rule:evenodd; clip-rule:evenodd" xmlns:xlink="http://www.w3.org/1999/xlink">
<g><path style="opacity:0.778" fill="#c41712" d="M 435.5,316.5 C 445.506,316.334 455.506,316.5 465.5,317C 485.041,322.434 503.708,330.101 521.5,340C 532.607,347.119 543.94,353.786 555.5,360C 557.849,361.882 559.849,364.048 561.5,366.5C 561.566,368.266 560.732,369.266 559,369.5C 535.318,361.068 511.151,354.568 486.5,350C 478.83,349.166 471.164,348.333 463.5,347.5C 449.054,347.289 435.721,350.789 423.5,358C 411.058,369.136 403.225,382.969 400,399.5C 399.667,399.167 399.333,398.833 399,398.5C 398,405.833 397,413.167 396,420.5C 395.667,418.833 395.333,417.167 395,415.5C 394.667,422.833 394.333,430.167 394,437.5C 393.667,434.5 393.333,431.5 393,428.5C 392.333,444.5 392.333,460.5 393,476.5C 393.333,474.5 393.667,472.5 394,470.5C 394.333,477.5 394.667,484.5 395,491.5C 395.333,490.167 395.667,488.833 396,487.5C 396.696,494.845 397.696,501.512 399,507.5C 399.333,506.833 399.667,506.167 400,505.5C 402.855,518.646 408.022,529.98 415.5,539.5C 428.857,553.698 444.023,556.032 461,546.5C 465.786,545.17 470.286,542.67 474.5,539C 475.449,538.383 476.282,538.549 477,539.5C 477.465,538.069 478.299,536.903 479.5,536C 491.617,528.228 503.951,520.728 516.5,513.5C 517.853,512.315 519.02,510.981 520,509.5C 520.414,509.957 520.914,510.291 521.5,510.5C 522.893,509.137 524.559,508.304 526.5,508C 524.729,507.465 524.396,506.631 525.5,505.5C 526.167,505.833 526.833,506.167 527.5,506.5C 535.199,501.303 543.033,496.303 551,491.5C 551.333,491.833 551.667,492.167 552,492.5C 552.374,491.584 552.874,490.75 553.5,490C 557.29,489.77 560.624,488.437 563.5,486C 577.002,482.232 590.002,483.565 602.5,490C 633.577,508.225 662.911,526.725 690.5,545.5C 715.292,558.507 734.459,552.841 748,528.5C 761.029,500.983 766.362,471.983 764,441.5C 763.4,419.894 758.733,399.227 750,379.5C 747.105,374.201 743.605,369.368 739.5,365C 739.833,364.667 740.167,364.333 740.5,364C 734.413,359.574 728.08,355.574 721.5,352C 709.295,349.552 696.961,348.885 684.5,350C 661.281,354.133 638.948,360.8 617.5,370C 603.676,375.416 590.343,381.583 577.5,388.5C 576.035,387.391 575.035,387.891 574.5,390C 572.579,390.36 570.912,391.194 569.5,392.5C 567.877,391.524 566.543,392.024 565.5,394C 563.112,394.303 560.945,395.137 559,396.5C 558.667,396.167 558.333,395.833 558,395.5C 553.138,398.405 548.304,401.405 543.5,404.5C 541.38,403.128 540.38,403.795 540.5,406.5C 538.473,406.338 536.473,406.505 534.5,407C 529.648,410.448 524.315,412.615 518.5,413.5C 518.5,411.5 518.5,409.5 518.5,407.5C 521.01,406.217 523.677,405.217 526.5,404.5C 526.5,403.5 526.5,402.5 526.5,401.5C 531.742,400.547 536.075,398.047 539.5,394C 548.515,389.869 556.515,384.869 563.5,379C 579.167,369.333 594.833,359.667 610.5,350C 625.951,342.218 641.618,334.884 657.5,328C 670.523,323.578 683.856,320.411 697.5,318.5C 704.459,318.841 711.459,319.007 718.5,319C 736.45,323.145 751.616,332.978 764,348.5C 779.572,373.045 788.572,400.045 791,429.5C 792.346,452.286 791.346,474.953 788,497.5C 782.872,523.757 771.372,546.757 753.5,566.5C 732.934,582.952 710.601,585.786 686.5,575C 658.683,558.555 631.016,541.221 603.5,523C 591.552,515.806 578.885,513.806 565.5,517C 554.157,522.499 543.157,528.665 532.5,535.5C 511.804,550.5 490.471,563.666 468.5,575C 445.084,585.777 423.417,583.11 403.5,567C 389.182,552.557 379.682,536.723 375,519.5C 374.667,520.167 374.333,520.833 374,521.5C 372.716,516.222 371.716,510.888 371,505.5C 370.667,506.167 370.333,506.833 370,507.5C 368.149,501.045 367.149,493.712 367,485.5C 366.667,486.5 366.333,487.5 366,488.5C 365.333,464.833 365.333,441.167 366,417.5C 366.333,418.833 366.667,420.167 367,421.5C 367.333,416.5 367.667,411.5 368,406.5C 368.333,407.167 368.667,407.833 369,408.5C 369.202,401.148 370.202,395.148 372,390.5C 372.333,391.5 372.667,392.5 373,393.5C 376.661,374.154 385.994,355.488 401,337.5C 406.812,332.135 412.979,327.302 419.5,323C 420.449,322.383 421.282,322.549 422,323.5C 426.296,320.686 430.796,318.352 435.5,316.5 Z"/></g>
<g><path style="opacity:0.631" fill="#c41712" d="M 679.5,408.5 C 688.171,407.614 693.671,411.281 696,419.5C 696.333,418.833 696.667,418.167 697,417.5C 697.667,421.5 697.667,425.5 697,429.5C 696.667,429.167 696.333,428.833 696,428.5C 695.667,430.167 695.333,431.833 695,433.5C 694.667,433.167 694.333,432.833 694,432.5C 693.667,433.5 693.333,434.5 693,435.5C 692.667,435.167 692.333,434.833 692,434.5C 691.5,435.667 690.667,436.5 689.5,437C 685.833,437.667 682.167,437.667 678.5,437C 676.598,436.801 675.098,435.967 674,434.5C 673.667,434.833 673.333,435.167 673,435.5C 672,433.5 671,431.5 670,429.5C 669.667,429.833 669.333,430.167 669,430.5C 667.089,422.344 668.589,415.844 673.5,411C 675.852,410.76 677.852,409.927 679.5,408.5 Z"/></g>
<g><path style="opacity:0.73" fill="#c41712" d="M 457.5,414.5 C 464.284,414.08 470.95,414.58 477.5,416C 478,416.5 478.5,417 479,417.5C 479.333,423.167 479.667,428.833 480,434.5C 480.5,435 481,435.5 481.5,436C 484.758,436.212 487.924,436.712 491,437.5C 493.667,436.167 496.333,436.167 499,437.5C 500.782,444.852 500.782,452.185 499,459.5C 498.25,460.126 497.416,460.626 496.5,461C 490.843,461.499 485.176,461.666 479.5,461.5C 479.812,468.422 479.479,475.256 478.5,482C 470.87,481.688 463.203,481.522 455.5,481.5C 454.649,475.016 454.315,468.683 454.5,462.5C 448.293,460.912 441.96,460.079 435.5,460C 434.751,458.266 434.251,456.433 434,454.5C 433.667,455.5 433.333,456.5 433,457.5C 432.169,451.141 432.336,444.807 433.5,438.5C 434.308,438.192 434.975,437.692 435.5,437C 441.825,436.5 448.158,436.334 454.5,436.5C 454.334,430.491 454.501,424.491 455,418.5C 455.48,416.867 456.313,415.534 457.5,414.5 Z"/></g>
<g><path style="opacity:0.637" fill="#c41712" d="M 703.5,433.5 C 716.841,432.177 723.508,438.177 723.5,451.5C 718.486,462.252 710.486,465.419 699.5,461C 697.641,459.442 696.141,457.609 695,455.5C 694.161,450.079 694.494,444.746 696,439.5C 697.826,436.492 700.326,434.492 703.5,433.5 Z"/></g>
<g><path style="opacity:0.657" fill="#c41712" d="M 650.5,434.5 C 665.584,431.663 672.917,437.663 672.5,452.5C 664.432,465.824 655.265,466.824 645,455.5C 642.217,448.31 643.384,441.976 648.5,436.5C 650.214,437.609 650.881,436.942 650.5,434.5 Z"/></g>
<g><path style="opacity:0.636" fill="#c41712" d="M 677.5,459.5 C 683.806,458.575 689.473,459.908 694.5,463.5C 699.547,472.502 698.214,480.335 690.5,487C 684.486,489.212 678.819,488.712 673.5,485.5C 671.56,483.955 670.394,481.955 670,479.5C 669.667,480.167 669.333,480.833 669,481.5C 668.333,476.5 668.333,471.5 669,466.5C 669.333,466.833 669.667,467.167 670,467.5C 670.684,465.641 671.684,463.974 673,462.5C 674.878,461.947 676.378,460.947 677.5,459.5 Z"/></g>
<g><path style="opacity:0.958" fill="#000000" d="M 173.5,616.5 C 183.167,616.5 192.833,616.5 202.5,616.5C 195.398,633.373 187.732,650.04 179.5,666.5C 183.245,674.324 187.245,681.991 191.5,689.5C 203.535,666.624 215.369,643.624 227,620.5C 228.214,618.951 229.714,617.785 231.5,617C 241.161,616.5 250.828,616.334 260.5,616.5C 243.562,653.044 226.062,689.378 208,725.5C 196.821,729.53 185.655,729.363 174.5,725C 170.811,717.121 166.977,709.287 163,701.5C 158.627,709.747 154.127,717.914 149.5,726C 138.799,729.345 128.132,729.178 117.5,725.5C 99.5882,689.757 82.2548,653.757 65.5,617.5C 75.1724,617.334 84.8391,617.5 94.5,618C 96.286,618.785 97.786,619.951 99,621.5C 110.426,644.687 122.093,667.687 134,690.5C 138.109,682.617 141.942,674.617 145.5,666.5C 138.381,650.262 130.715,634.262 122.5,618.5C 132.483,617.334 142.483,617.168 152.5,618C 153.931,618.465 155.097,619.299 156,620.5C 157.912,624.66 160.079,628.66 162.5,632.5C 165,628.167 167.5,623.833 170,619.5C 171.145,618.364 172.312,617.364 173.5,616.5 Z"/></g>
<g><path style="opacity:0.954" fill="#000000" d="M 298.5,616.5 C 307.506,616.334 316.506,616.5 325.5,617C 328.102,617.883 330.269,619.383 332,621.5C 349.729,656.956 366.895,692.622 383.5,728.5C 374.085,728.917 364.752,728.417 355.5,727C 353,725.833 351.167,724 350,721.5C 347.961,717.255 345.794,713.088 343.5,709C 322.159,708.167 300.826,708.334 279.5,709.5C 277.333,713.833 275.167,718.167 273,722.5C 271.457,724.378 269.624,725.878 267.5,727C 258.582,728.414 249.582,728.914 240.5,728.5C 256.498,692.835 273.331,657.502 291,622.5C 293.134,619.847 295.634,617.847 298.5,616.5 Z M 311.5,643.5 C 318.535,656.403 325.202,669.57 331.5,683C 318.487,683.833 305.487,683.666 292.5,682.5C 299.119,669.596 305.452,656.596 311.5,643.5 Z"/></g>
<g><path style="opacity:0.964" fill="#000000" d="M 401.5,616.5 C 428.169,616.333 454.835,616.5 481.5,617C 510.892,621.74 523.392,638.907 519,668.5C 516.068,681.933 508.235,691.266 495.5,696.5C 502.923,707.012 510.59,717.345 518.5,727.5C 506.456,728.915 494.456,728.748 482.5,727C 475.799,718.431 469.465,709.598 463.5,700.5C 449.182,699.501 434.849,699.167 420.5,699.5C 420.938,707.943 420.438,716.277 419,724.5C 417.681,726.487 415.848,727.654 413.5,728C 407.175,728.5 400.842,728.666 394.5,728.5C 394.333,694.832 394.5,661.165 395,627.5C 395.143,622.534 397.31,618.867 401.5,616.5 Z M 420.5,646.5 C 440.503,646.333 460.503,646.5 480.5,647C 489.223,650.834 491.389,657.001 487,665.5C 485.786,667.049 484.286,668.215 482.5,669C 461.869,670.415 441.203,670.915 420.5,670.5C 420.5,662.5 420.5,654.5 420.5,646.5 Z"/></g>
<g><path style="opacity:0.961" fill="#000000" d="M 577.5,616.5 C 615.919,616.012 654.253,616.512 692.5,618C 694.81,619.637 696.31,621.804 697,624.5C 697.667,633.5 697.667,642.5 697,651.5C 696.529,653.246 695.862,654.913 695,656.5C 670.914,670.127 646.747,683.627 622.5,697C 647.498,697.5 672.498,697.667 697.5,697.5C 697.91,706.25 697.41,714.916 696,723.5C 694.457,725.378 692.624,726.878 690.5,728C 652.107,728.982 613.774,728.648 575.5,727C 573.951,725.786 572.785,724.286 572,722.5C 571.333,715.167 571.333,707.833 572,700.5C 573.122,698.376 574.622,696.543 576.5,695C 603.833,679 631.167,663 658.5,647C 629.502,646.5 600.502,646.333 571.5,646.5C 571.334,638.493 571.5,630.493 572,622.5C 573.36,619.977 575.193,617.977 577.5,616.5 Z"/></g>
<g><path style="opacity:0.961" fill="#000000" d="M 745.5,616.5 C 765.503,616.333 785.503,616.5 805.5,617C 825.379,622.22 836.879,635.054 840,655.5C 840.667,666.833 840.667,678.167 840,689.5C 836.794,710.37 824.961,723.203 804.5,728C 785.167,728.667 765.833,728.667 746.5,728C 726.486,723.318 714.653,710.818 711,690.5C 710.094,676.786 710.427,663.119 712,649.5C 717.148,632.184 728.315,621.184 745.5,616.5 Z M 748.5,646.5 C 766.17,646.333 783.836,646.5 801.5,647C 808,648.833 812.167,653 814,659.5C 814.667,668.167 814.667,676.833 814,685.5C 811.833,691.667 807.667,695.833 801.5,698C 784.167,698.667 766.833,698.667 749.5,698C 742.667,696.5 738.5,692.333 737,685.5C 736.333,676.833 736.333,668.167 737,659.5C 738.617,653.058 742.45,648.725 748.5,646.5 Z"/></g>
<g><path style="opacity:0.956" fill="#000000" d="M 863.5,616.5 C 870.175,616.334 876.842,616.5 883.5,617C 907.695,640.861 931.528,665.028 955,689.5C 955.5,665.169 955.667,640.836 955.5,616.5C 962.175,616.334 968.842,616.5 975.5,617C 978,618.167 979.833,620 981,622.5C 981.667,655.5 981.667,688.5 981,721.5C 980.167,725 978,727.167 974.5,728C 968.167,728.667 961.833,728.667 955.5,728C 930.972,703.805 906.805,679.305 883,654.5C 882.5,679.164 882.333,703.831 882.5,728.5C 875.411,728.884 868.411,728.384 861.5,727C 859.106,725.048 857.606,722.548 857,719.5C 856.333,688.167 856.333,656.833 857,625.5C 857.873,621.475 860.039,618.475 863.5,616.5 Z"/></g>
<g><path style="opacity:0.953" fill="#000000" d="M 1010.5,616.5 C 1043.5,616.333 1076.5,616.5 1109.5,617C 1112.38,618.251 1114.21,620.417 1115,623.5C 1115.5,630.826 1115.67,638.159 1115.5,645.5C 1086.83,645.5 1058.17,645.5 1029.5,645.5C 1029.5,650.167 1029.5,654.833 1029.5,659.5C 1049.5,659.5 1069.5,659.5 1089.5,659.5C 1089.5,668.167 1089.5,676.833 1089.5,685.5C 1069.5,685.5 1049.5,685.5 1029.5,685.5C 1029.5,690.5 1029.5,695.5 1029.5,700.5C 1058.17,700.5 1086.83,700.5 1115.5,700.5C 1115.67,707.508 1115.5,714.508 1115,721.5C 1114.17,725 1112,727.167 1108.5,728C 1075.11,728.979 1041.77,728.645 1008.5,727C 1006.11,725.048 1004.61,722.548 1004,719.5C 1003.33,688.167 1003.33,656.833 1004,625.5C 1004.87,621.475 1007.04,618.475 1010.5,616.5 Z"/></g>
<g><path style="opacity:0.846" fill="#c41712" d="M 387.5,767.5 C 396.839,767.334 406.173,767.5 415.5,768C 417.278,770.135 417.945,772.635 417.5,775.5C 408.827,775.334 400.16,775.5 391.5,776C 399.577,776.098 407.577,776.765 415.5,778C 417.456,781.595 417.956,785.428 417,789.5C 416.5,791.333 415.333,792.5 413.5,793C 403.833,793.667 394.167,793.667 384.5,793C 383.565,790.619 383.232,788.119 383.5,785.5C 391.84,785.666 400.173,785.5 408.5,785C 400.771,784.857 393.105,784.19 385.5,783C 383.544,779.405 383.044,775.572 384,771.5C 384.69,769.65 385.856,768.316 387.5,767.5 Z"/></g>
<g><path style="opacity:0.884" fill="#c41712" d="M 431.5,767.5 C 434.85,767.335 438.183,767.502 441.5,768C 446.876,775.916 451.876,784.083 456.5,792.5C 453.554,793.655 450.554,793.821 447.5,793C 446.257,791.846 445.257,790.512 444.5,789C 439.5,788.333 434.5,788.333 429.5,789C 428.743,790.512 427.743,791.846 426.5,793C 423.446,793.821 420.446,793.655 417.5,792.5C 422.195,784.15 426.861,775.816 431.5,767.5 Z M 436.5,775.5 C 437.933,777.519 439.267,779.686 440.5,782C 438.098,782.814 435.765,782.647 433.5,781.5C 434.559,779.466 435.559,777.466 436.5,775.5 Z"/></g>
<g><path style="opacity:0.877" fill="#c41712" d="M 459.5,767.5 C 461.833,767.5 464.167,767.5 466.5,767.5C 466.5,773.5 466.5,779.5 466.5,785.5C 473.833,785.5 481.167,785.5 488.5,785.5C 488.768,788.119 488.435,790.619 487.5,793C 478.167,793.667 468.833,793.667 459.5,793C 458.181,784.5 458.181,776 459.5,767.5 Z"/></g>
<g><path style="opacity:0.877" fill="#c41712" d="M 492.5,767.5 C 494.833,767.5 497.167,767.5 499.5,767.5C 499.5,773.5 499.5,779.5 499.5,785.5C 506.833,785.5 514.167,785.5 521.5,785.5C 521.768,788.119 521.435,790.619 520.5,793C 511.167,793.667 501.833,793.667 492.5,793C 491.181,784.5 491.181,776 492.5,767.5 Z"/></g>
<g><path style="opacity:0.924" fill="#c41712" d="M 525.5,767.5 C 534.839,767.334 544.173,767.5 553.5,768C 554.423,770.041 554.756,772.208 554.5,774.5C 547.167,774.5 539.833,774.5 532.5,774.5C 532.5,775.5 532.5,776.5 532.5,777.5C 537.5,777.5 542.5,777.5 547.5,777.5C 547.5,779.5 547.5,781.5 547.5,783.5C 542.5,783.5 537.5,783.5 532.5,783.5C 532.5,784.5 532.5,785.5 532.5,786.5C 539.833,786.5 547.167,786.5 554.5,786.5C 554.756,788.792 554.423,790.959 553.5,793C 544.167,793.667 534.833,793.667 525.5,793C 524.181,784.5 524.181,776 525.5,767.5 Z"/></g>
<g><path style="opacity:0.884" fill="#c41712" d="M 569.5,767.5 C 578.582,767.086 587.582,767.586 596.5,769C 598.378,770.543 599.878,772.376 601,774.5C 601.879,779.287 601.545,783.953 600,788.5C 598.363,790.81 596.196,792.31 593.5,793C 585.5,793.667 577.5,793.667 569.5,793C 568.181,784.5 568.181,776 569.5,767.5 Z M 576.5,775.5 C 581.511,775.334 586.511,775.501 591.5,776C 594.167,779 594.167,782 591.5,785C 586.511,785.499 581.511,785.666 576.5,785.5C 576.5,782.167 576.5,778.833 576.5,775.5 Z"/></g>
<g><path style="opacity:0.924" fill="#c41712" d="M 605.5,767.5 C 614.839,767.334 624.173,767.5 633.5,768C 634.423,770.041 634.756,772.208 634.5,774.5C 627.167,774.5 619.833,774.5 612.5,774.5C 612.5,775.5 612.5,776.5 612.5,777.5C 617.5,777.5 622.5,777.5 627.5,777.5C 627.5,779.5 627.5,781.5 627.5,783.5C 622.5,783.5 617.5,783.5 612.5,783.5C 612.5,784.5 612.5,785.5 612.5,786.5C 619.833,786.5 627.167,786.5 634.5,786.5C 634.756,788.792 634.423,790.959 633.5,793C 624.167,793.667 614.833,793.667 605.5,793C 604.181,784.5 604.181,776 605.5,767.5 Z"/></g>
<g><path style="opacity:0.85" fill="#c41712" d="M 665.5,767.5 C 668.119,767.232 670.619,767.565 673,768.5C 673.667,774.5 673.667,780.5 673,786.5C 671.878,788.624 670.378,790.457 668.5,792C 660.605,793.601 652.605,793.934 644.5,793C 643.565,790.619 643.232,788.119 643.5,785.5C 650.175,785.666 656.842,785.5 663.5,785C 664,784.5 664.5,784 665,783.5C 665.499,778.177 665.666,772.844 665.5,767.5 Z"/></g>
<g><path style="opacity:0.924" fill="#c41712" d="M 679.5,767.5 C 688.839,767.334 698.173,767.5 707.5,768C 708.423,770.041 708.756,772.208 708.5,774.5C 701.167,774.5 693.833,774.5 686.5,774.5C 686.5,775.5 686.5,776.5 686.5,777.5C 691.5,777.5 696.5,777.5 701.5,777.5C 701.5,779.5 701.5,781.5 701.5,783.5C 696.5,783.5 691.5,783.5 686.5,783.5C 686.5,784.5 686.5,785.5 686.5,786.5C 693.833,786.5 701.167,786.5 708.5,786.5C 708.756,788.792 708.423,790.959 707.5,793C 698.167,793.667 688.833,793.667 679.5,793C 678.181,784.5 678.181,776 679.5,767.5 Z"/></g>
<g><path style="opacity:0.882" fill="#c41712" d="M 712.5,767.5 C 714.5,767.5 716.5,767.5 718.5,767.5C 718.334,773.176 718.501,778.843 719,784.5C 724.741,785.475 730.575,785.808 736.5,785.5C 736.5,779.5 736.5,773.5 736.5,767.5C 739.119,767.232 741.619,767.565 744,768.5C 745.441,775.545 745.441,782.545 744,789.5C 742.992,791.259 741.492,792.426 739.5,793C 731.833,793.667 724.167,793.667 716.5,793C 714.671,792.727 713.171,791.893 712,790.5C 710.409,783.608 710.076,776.608 711,769.5C 711.717,768.956 712.217,768.289 712.5,767.5 Z"/></g>
<g><path style="opacity:0.862" fill="#c41712" d="M 745.5,767.5 C 749.182,767.335 752.848,767.501 756.5,768C 758.35,770.018 760.35,771.851 762.5,773.5C 764.65,771.851 766.65,770.018 768.5,768C 772.211,767.175 775.878,767.341 779.5,768.5C 775.79,772.208 772.457,776.208 769.5,780.5C 772.457,784.792 775.79,788.792 779.5,792.5C 775.878,793.659 772.211,793.825 768.5,793C 766.65,790.982 764.65,789.149 762.5,787.5C 760.35,789.149 758.35,790.982 756.5,793C 752.789,793.825 749.122,793.659 745.5,792.5C 749.167,788.5 752.833,784.5 756.5,780.5C 752.412,776.421 748.745,772.088 745.5,767.5 Z"/></g>
</svg>
