<?xml version="1.0" encoding="UTF-8"?>
<svg version="1.1" viewBox="0 0 1600 1600" width="1280" height="1280" xmlns="http://www.w3.org/2000/svg">
<path transform="translate(611 434)" d="m0 0c0.68 0.00243 1.36 0.00485 2.06 0.00735 11.9 0.0822 22.7 1.56 33.9 5.49 0.944 0.322 1.89 0.644 2.86 0.975 20.3 7.02 39.2 16.2 57.9 26.7 2.32 1.3 4.64 2.58 6.97 3.87 8.43 4.68 16.6 9.8 24.5 15.3 1.91 1.3 1.91 1.3 4.8 2.13v2c-8.75-2.11-17.4-4.36-26-7.07-3.68-1.15-7.39-2.17-11.1-3.16-1.99-0.531-3.97-1.08-5.95-1.63-32.4-8.98-66.5-17.2-99.9-9.14-1.11 0.205-2.22 0.41-3.37 0.621-15.6 3.01-28.8 11-38.6 23.4-0.66 0.99-1.32 1.98-2 3h-2c-0.206 0.784-0.413 1.57-0.625 2.38-1.19 3.15-2.48 5.54-4.25 8.38-3.03 4.92-5.13 9.84-7.12 15.2-0.474 1.22-0.949 2.44-1.44 3.7-7.17 18.5-11.3 37-12.4 56.8-0.211 2.53-0.211 2.53-0.715 4.4-0.542 2.33-0.63 4.41-0.641 6.8-0.00638 0.923-0.0128 1.85-0.0193 2.8-0.00111 0.995-0.00223 1.99-0.00337 3.01-0.00333 1.04-0.00666 2.08-0.0101 3.15-0.00507 2.21-0.00741 4.41-0.00725 6.62-0.00216 3.32-0.0202 6.63-0.0393 9.95-0.0804 30.2 4.24 60.8 16.2 88.8 0.66 0.66 1.32 1.32 2 2 0.696 1.69 1.39 3.38 2.09 5.07 1.25 2.64 2.92 4.85 4.67 7.18 1.25 1.75 1.25 1.75 3.12 5.18 6.3 11.2 17.3 19.5 29.3 23.7 22.4 5.15 40.1-2.76 58.8-14.4 7.61-4.8 15.1-9.72 22.7-14.6 5.23-3.39 10.5-6.66 15.9-9.9 5.93-3.6 11.8-7.27 17.5-11.2 14.3-9.7 28.9-18.8 44-27.3 1.81-1.02 3.62-2.06 5.4-3.13 14.5-8.58 32.2-12.4 48.8-8.51 16.6 5.44 32.3 14.5 46.9 24 3.99 2.57 8.05 5.02 12.1 7.48 5.33 3.24 10.6 6.52 15.8 10 2.61 1.76 5.25 3.46 7.9 5.16 0.893 0.572 1.79 1.14 2.71 1.73 2.12 1.3 4.24 2.45 6.48 3.52v2c0.673 0.237 1.35 0.474 2.04 0.719 3.69 1.6 6.95 3.63 10.3 5.78 0.7 0.441 1.4 0.881 2.12 1.34 4.77 3.01 9.46 6.13 14.1 9.29 18.2 12.2 37.7 22.8 60.4 18.9 7.53-2.11 16.1-6.07 21.7-11.7 1.34-1.32 1.34-1.32 3.34-1.32 0.246-0.563 0.492-1.13 0.746-1.71 1.47-2.69 3.28-4.69 5.32-6.98 5.9-7.13 9.97-15 13.9-23.3 0.557-1.16 1.11-2.32 1.69-3.51 5.23-12 7.64-24.8 10.3-37.5 0.197-0.901 0.394-1.8 0.598-2.73 1.1-5.18 1.72-10.2 1.9-15.5 0.239-5.35 0.705-10.5 1.56-15.8 0.984-6.9 1.16-13.7 1.19-20.7 0.0137-1.55 0.0137-1.55 0.0276-3.13-0.0247-6.33-0.683-12.3-1.82-18.5-0.559-3.3-0.694-6.53-0.767-9.87-0.684-15.7-4.39-32-9.69-46.8-0.365-1.03-0.365-1.03-0.738-2.09-0.465-1.27-0.947-2.54-1.45-3.79-0.618-1.6-1.19-3.23-1.73-4.86-5.42-15.6-14.5-29.6-27.1-40.3-0.763-0.701-1.53-1.4-2.31-2.12-14.7-10.2-30.8-11.1-48-11.1-2.35-0.00218-4.71-0.0204-7.06-0.0393-14.3-0.0564-27.8 1.63-41.6 5.54-1.13 0.312-2.26 0.624-3.42 0.945-8.29 2.32-16.5 4.82-24.6 7.74-0.748 0.268-1.5 0.536-2.27 0.812-8.68 3.12-17.3 6.32-25.8 9.95-2.82 1.19-5.66 2.31-8.51 3.42-6.35 2.48-12.4 5.27-18.5 8.39-3.06 1.48-6.14 2.69-9.33 3.87-4.54 1.69-8.82 3.6-13.1 5.81-5.9 3.03-11.9 5.68-18 8.25-7.29 3.07-14.4 6.34-21.4 9.94-7.19 3.65-14.5 6.83-22.1 9.66-2.17 0.83-2.17 0.83-4 2.89-0.99-0.33-1.98-0.66-3-1 1.29-0.839 2.58-1.67 3.88-2.5 1.08-0.696 1.08-0.696 2.18-1.41 1.95-1.09 1.95-1.09 3.95-1.09v-2c2.45-1.66 2.45-1.66 5.69-3.5 1.06-0.608 2.11-1.22 3.2-1.84 3.11-1.66 3.11-1.66 5.95-2.69 1.07-0.48 1.07-0.48 2.17-0.969 0.33-0.99 0.66-1.98 1-3 1.64-1 3.3-1.99 4.99-2.9 3.4-1.86 6.59-4.04 9.82-6.16 19.8-12.9 40.1-24.8 60.6-36.5 1.27-0.733 1.27-0.733 2.57-1.48 13.9-7.96 13.9-7.96 17.1-7.96v-2c0.976-0.409 1.95-0.817 2.96-1.24 3.52-1.51 6.96-3.15 10.4-4.82 15.4-7.47 31.3-13.9 47.6-18.9 0.671-0.213 1.34-0.425 2.03-0.644 30.9-9.7 61.5-10.5 90.8 4.46 5.94 3.39 11 7.75 16.2 12.2 0.83 0.615 1.66 1.23 2.52 1.86 2.98 2.57 5.14 5.48 7.36 8.7 0.435 0.623 0.87 1.25 1.32 1.89 1.28 1.84 2.55 3.7 3.81 5.55 0.634 0.924 1.27 1.85 1.92 2.8 8.08 12.2 13.9 25.5 19.1 39.2 0.392 1.01 0.784 2.02 1.19 3.07 1.84 4.87 3.35 9.64 4.32 14.8 0.474 2.28 0.474 2.28 1.42 4.83 1.36 4.25 2.23 8.52 3.07 12.9 0.174 0.907 0.349 1.81 0.529 2.75 1.69 9.2 2.56 18.4 3.24 27.8 0.194 2.15 0.194 2.15 1.23 4.94 0.0955 1.38 0.138 2.77 0.145 4.16 0.00957 1.25 0.00957 1.25 0.0193 2.53 0.00167 1.35 0.00167 1.35 0.00337 2.74 0.00333 0.939 0.00666 1.88 0.0101 2.85 0.00507 1.99 0.00741 3.99 0.00725 5.98 0.00216 3.01 0.0202 6.01 0.0393 9.02 0.0309 10.5-0.402 20.4-2.22 30.7-0.247 1.8-0.484 3.6-0.711 5.4-1.42 10.8-3.41 21.1-6.29 31.6-0.335 1.35-0.335 1.35-0.676 2.73-3.28 13-7.44 26.2-14.6 37.6-1.72 2.72-3.2 5.5-4.68 8.35-6 11-14.9 20.7-24 29.3-0.558 0.541-1.12 1.08-1.69 1.64-13.1 12.2-29.4 17-47.1 16.7-20.7-1.19-39.1-9.28-56.1-20.9-2.03-1.34-4.08-2.52-6.21-3.67-6.54-3.55-12.8-7.59-19.1-11.6-1.59-1.01-3.19-2-4.79-3-6.18-3.87-12.2-7.98-18.2-12.1-4.72-3.26-9.51-6.36-14.4-9.4-2.57-1.68-4.97-3.48-7.41-5.34-20-14.7-42.3-26.5-67.8-22.8-10.2 2.02-18.9 6.03-27.9 11.1-0.779 0.435-1.56 0.869-2.36 1.32-6.9 3.9-13.5 8.2-20 12.7-2.24 1.53-4.51 3.03-6.77 4.53-0.809 0.535-1.62 1.07-2.45 1.62-1.57 1.04-3.14 2.08-4.71 3.11-3.1 2.06-6.05 4.09-8.91 6.46-2.16 1.65-2.16 1.65-5.16 1.65v2c-1.84 1.29-3.74 2.48-5.67 3.63-0.591 0.356-1.18 0.711-1.79 1.08-1.91 1.15-3.82 2.28-5.73 3.41-1.24 0.742-2.48 1.48-3.72 2.23-1.85 1.11-3.71 2.22-5.56 3.33-5.23 3.12-10.4 6.31-15.6 9.51-23.3 14.3-48.6 25.4-76.4 18.9-17.3-5.14-31.1-16.4-42.5-30.1-0.628-0.753-1.26-1.51-1.9-2.28-13.8-17.2-22.6-38.5-28.1-59.7-0.339-1.27-0.678-2.53-1.03-3.84-3.57-13.6-6.12-27.1-6.76-41.1-0.105-2.91-0.105-2.91-0.714-5.02-0.863-3.57-0.681-7.25-0.7-10.9-0.00683-0.877-0.0137-1.75-0.0207-2.66-0.0171-2.85-0.0233-5.71-0.0262-8.56-2e-3 -0.965-0.00401-1.93-0.00607-2.93-0.0206-40.5-0.0206-40.5 4.26-49 0.276-2.72 0.446-5.44 0.621-8.18 0.394-2.94 1.27-5.08 2.38-7.82 0.734-2.9 1.33-5.82 1.94-8.75 2.3-10.6 5.72-20.3 10.1-30.2 0.442-1.02 0.884-2.04 1.34-3.09 5.89-13.2 12.8-25.5 21.7-36.9 0.529-0.758 1.06-1.52 1.6-2.3 0.461-0.562 0.923-1.12 1.4-1.7h2c0.268-0.593 0.536-1.19 0.812-1.8 2.02-3.75 5.08-6.34 8.19-9.2 0.665-0.632 1.33-1.26 2.02-1.91 5.31-4.66 11-7.85 17.4-10.9 1.15-0.56 1.15-0.56 2.32-1.13 11.2-5.19 22-6.62 34.3-6.56z" fill="#060200"/>
<path transform="translate(245 837)" d="m0 0c0.792 0.00424 1.58 0.00849 2.4 0.0129 2.52 0.0167 5.03 0.0544 7.55 0.0926 1.71 0.0151 3.42 0.0287 5.13 0.041 4.18 0.033 8.37 0.0847 12.6 0.146 0.33 0.66 0.66 1.32 1 2-1.05 2.38-2.16 4.64-3.38 6.94-0.751 1.46-1.5 2.92-2.25 4.38-0.393 0.767-0.786 1.53-1.19 2.33-1.95 3.86-3.79 7.76-5.63 11.7-0.371 0.787-0.743 1.57-1.13 2.38-1.95 4.14-3.89 8.28-5.83 12.4-0.395 0.839-0.789 1.68-1.2 2.54-0.745 1.59-1.49 3.17-2.23 4.76-2.2 4.68-4.62 9.13-7.34 13.5-1.04 2.53-0.75 3.51 0.153 6.05 0.351 1.24 0.701 2.48 1.06 3.75 0.309 1.07 0.619 2.14 0.938 3.25h2c0.409 0.984 0.817 1.97 1.24 2.98 2.12 4.95 4.6 9.71 7.06 14.5 2.7 5.31 2.7 5.31 2.7 7.52 2.29-2.09 3.64-3.96 4.91-6.78 0.517-1.12 0.517-1.12 1.04-2.27 0.365-0.808 0.731-1.62 1.11-2.45 3.13-6.77 6.41-13.4 9.94-20 3.43-6.42 6.67-12.9 9.75-19.5 2.74-5.86 5.56-11.6 8.72-17.3 1.88-3.37 3.71-6.76 5.53-10.2 0.512-0.95 0.512-0.95 1.03-1.92 2.67-4.99 5.07-10.1 7.35-15.3 2.16-3.2 4.03-3.96 7.62-5.39 2.83-0.38 5.61-0.351 8.46-0.293 0.791 0.00424 1.58 0.00849 2.4 0.0129 2.51 0.0167 5.01 0.0543 7.52 0.0926 1.71 0.0151 3.41 0.0287 5.12 0.041 4.17 0.0329 8.34 0.0847 12.5 0.146-0.547 3.22-1.24 5.83-2.82 8.68-0.367 0.673-0.733 1.35-1.11 2.04-0.394 0.711-0.788 1.42-1.19 2.16-3.22 5.94-6.25 11.9-9.07 18-5.68 12.4-11.5 24.7-17.7 36.8-7.58 15-14.8 30.2-21.9 45.4-3.64 7.71-7.39 15.4-11.3 23-0.664 1.33-1.31 2.66-1.94 4.01-0.34 0.716-0.68 1.43-1.03 2.17-0.303 0.653-0.606 1.31-0.919 1.98-1.63 2.64-3.57 3.57-6.52 4.3-4.95 0.544-9.86 0.571-14.8 0.574-0.995 0.0122-1.99 0.0245-3.01 0.0371-14.5 0.0285-14.5 0.0285-20.4-4.13-3.38-4.55-5.67-9.47-8.05-14.6-0.741-1.55-0.741-1.55-1.5-3.13-2.1-4.47-3.95-8.47-4.75-13.4h-2c-0.33-0.66-0.66-1.32-1-2-1.34 2.5-2.67 5-4 7.5-0.405 0.759-0.81 1.52-1.23 2.3-2.07 3.9-4.09 7.81-6.01 11.8-0.35 0.721-0.7 1.44-1.06 2.19-0.662 1.37-1.32 2.75-1.96 4.14-1.74 3.61-3.16 6.17-6.74 8.09-3.47 0.847-6.71 1.13-10.3 1.13-1.49 0.00193-1.49 0.00193-3 0.00391-1.02-0.00387-2.05-0.00773-3.1-0.0117-1.02 0.00387-2.03 0.00773-3.08 0.0117-15.6-0.0203-15.6-0.0203-21.5-5.14-2.34-3.59-4-6.67-4-11h-2c-0.24-0.547-0.48-1.09-0.728-1.66-2.4-5.45-4.9-10.8-7.46-16.2-0.794-1.67-1.59-3.34-2.38-5.01-0.403-0.846-0.805-1.69-1.22-2.56-1.18-2.48-2.35-4.96-3.51-7.44-5.06-10.7-10.3-21.4-15.6-32-4.79-9.48-9.41-19-14-28.6-2.76-5.79-5.57-11.5-8.46-17.3-8.62-17.1-8.62-17.1-8.62-21.2 4.87-0.0744 9.75-0.129 14.6-0.165 1.66-0.015 3.31-0.0355 4.97-0.0615 2.39-0.0366 4.78-0.0535 7.16-0.0667 1.1-0.0232 1.1-0.0232 2.23-0.0469 4.76-0.00154 7.96 0.852 12 3.34 3.35 3.42 5.04 8.12 7 12.4 2.14 4.68 4.31 9.17 7 13.6 1.25 2.43 2.48 4.86 3.69 7.31 0.524 1.05 0.524 1.05 1.06 2.13 1.41 2.84 2.82 5.68 4.23 8.53 4.51 9.12 9.18 18.1 13.9 27.1 3.42 6.51 6.62 13.1 9.63 19.8 1.47 3.7 1.47 3.7 4.46 6.06 0.251-0.668 0.503-1.34 0.762-2.02 1.51-3.63 3.27-7.1 5.05-10.6 0.714-1.43 1.43-2.86 2.14-4.29 1.22-2.44 2.46-4.87 3.72-7.3 0.688-1.38 0.688-1.38 1.39-2.79 0.605-1.18 0.605-1.18 1.22-2.38 1.85-6.8-0.807-12.5-3.97-18.4-0.736-1.42-1.47-2.84-2.21-4.25-0.362-0.686-0.723-1.37-1.1-2.08-1.33-2.52-2.61-5.06-3.88-7.6-0.471-0.938-0.941-1.88-1.43-2.84-1.39-2.85-2.76-5.7-4.12-8.56-0.435-0.92-0.87-1.84-1.32-2.79-0.861-1.82-1.72-3.65-2.57-5.47-2.4-5.08-4.94-10-7.77-14.8-0.92-1.8-0.92-1.8-0.92-3.8 5.02-0.0496 10-0.0858 15.1-0.11 1.71-0.01 3.41-0.0237 5.12-0.041 2.46-0.0244 4.91-0.0356 7.37-0.0444 1.13-0.0155 1.13-0.0155 2.29-0.0313 4.44-9.3e-4 8.14 0.308 12.2 2.23 1.6 1.97 1.6 1.97 2.77 4.35 0.432 0.851 0.864 1.7 1.31 2.58 0.64 1.33 0.64 1.33 1.29 2.7 0.45 0.897 0.9 1.79 1.36 2.72 1.11 2.21 2.19 4.43 3.26 6.66h2c0.982-1.94 1.96-3.87 2.94-5.81 0.545-1.08 1.09-2.16 1.65-3.27 1.47-2.88 1.47-2.88 2.41-5.92h2c0.0619-0.598 0.124-1.2 0.188-1.81 2.24-6.02 8.7-5.59 14.2-5.48z" fill="#060200"/>
<path transform="translate(791 837)" d="m0 0c1.26-0.0099 2.52-0.0198 3.82-0.03 1.39 0.00424 2.77 0.0088 4.16 0.0136 1.47-0.00571 2.94-0.0127 4.41-0.0208 3.98-0.0179 7.96-0.0168 11.9-0.0111 3.33 0.00309 6.65-3e-3 9.98-0.00904 7.84-0.014 15.7-0.0125 23.5-0.0011 8.09 0.0115 16.2-0.0026 24.3-0.0294 6.95-0.0222 13.9-0.0288 20.9-0.0229 4.15 0.00337 8.3 9.58e-4 12.4-0.0163 3.9-0.0155 7.8-0.0115 11.7 0.00731 1.43 0.00368 2.86 5.83e-4 4.29-0.00989 13.4-0.0905 13.4-0.0905 18.2 4.52 3.6 4.29 3.45 8.46 3.43 13.8 0.00524 0.844 0.0105 1.69 0.0159 2.56 0.00641 1.78 0.0051 3.56-0.00343 5.34-0.00851 2.72 0.0203 5.43 0.052 8.14 0.00161 1.74 0.00103 3.47-0.00195 5.21 0.0112 0.806 0.0225 1.61 0.034 2.44-0.0649 5.29-1.03 8.3-4.53 12.5-2.66 1.94-2.66 1.94-5.62 3.56l-3.19 1.76c-1.05 0.554-2.1 1.11-3.19 1.68-0.969 0.513-1.94 1.03-2.94 1.55-6.7 3.45-6.7 3.45-9.06 3.45v2c-0.744 0.354-1.49 0.709-2.25 1.07-9.94 4.85-19.5 10.3-29.1 15.7-7.64 4.35-15.4 8.53-23.1 12.7-4.21 2.27-8.42 4.53-12.6 6.81-0.869 0.471-1.74 0.941-2.63 1.43-1.79 1.01-3.53 2.12-5.24 3.26 34 0.33 68 0.66 103 1 0 30 0 30-3 35-3.73 3.72-6.15 4.5-11.4 4.51-1.29 0.0127-2.57 0.0254-3.9 0.0386-1.42-0.00618-2.84-0.0128-4.26-0.0198-1.5 0.00706-3 0.0158-4.5 0.0261-4.07 0.0225-8.14 0.0196-12.2 0.0107-3.4-0.00511-6.79 0.00218-10.2 0.00947-8.01 0.017-16 0.0134-24-0.00329-8.27-0.0169-16.5-0.00108-24.8 0.0312-7.1 0.0267-14.2 0.034-21.3 0.0255-4.24-0.00493-8.48-0.00271-12.7 0.0178-3.99 0.0183-7.97 0.0124-12-0.0122-1.46-0.00501-2.92-0.00151-4.39 0.0111-2 0.0159-3.99-0.00204-5.99-0.0217-1.68-8.79e-4 -1.68-8.79e-4 -3.39-0.00178-4.87-1.02-7.08-4.28-9.77-8.26-1.73-4.78-1.73-9.2-1.72-14.2-0.0284-0.955-0.0567-1.91-0.0859-2.89-0.0182-6.62 0.987-11.3 5.59-16.2 2.82-2.34 5.83-4.18 9-6 0.924-0.539 1.85-1.08 2.8-1.63 2.97-1.71 5.96-3.39 8.95-5.05 2.02-1.13 4.03-2.26 6.05-3.39 0.88-0.491 1.76-0.981 2.67-1.49 5.21-2.95 10.2-6.16 15.2-9.43 3.71-2.26 7.5-4.31 11.3-6.37 5.05-2.77 10-5.67 15-8.58 1-0.582 2.01-1.16 3.04-1.76 5.9-3.44 11.7-7 17.4-10.7 3.45-2.16 7.02-4.06 10.6-5.93 4.1-2.34 7.97-5.04 11.9-7.65-39.3-0.33-78.5-0.66-119-1 0-28 0-28 4-36 4.11-2.85 7.44-3.38 12.4-3.39z" fill="#060200"/>
<path transform="translate(556 836)" d="m0 0c1.5-0.0081 1.5-0.0081 3.03-0.0164 3.3-0.0125 6.6 0.00402 9.9 0.022 2.31-1.55e-4 4.61-0.00165 6.92-0.00441 4.84-0.00138 9.68 0.0112 14.5 0.034 6.16 0.0282 12.3 0.0257 18.5 0.0129 4.77-0.00701 9.54 8.91e-4 14.3 0.0133 2.27 0.00448 4.54 0.00488 6.81 9.35e-4 32.4-0.0299 32.4-0.0299 45.6 7.38 0.974 0.502 0.974 0.502 1.97 1.01 10.8 5.73 17.5 13.9 22.3 25 0.309 0.704 0.619 1.41 0.938 2.13 5.2 12.8 4.83 29.7-0.383 42.4-4.27 9.28-9.46 17.4-18.6 22.5h-2v2c-2.91 1.26-4.8 2-8 2v2c-0.99 0.495-0.99 0.495-2 1 1.93 3.07 3.64 5.65 6.25 8.19 3.14 3.21 5.61 6.63 8.21 10.3 2.02 2.84 4.09 5.64 6.16 8.44 0.637 0.859 1.27 1.72 1.93 2.6 1.29 1.74 2.58 3.47 3.87 5.2 0.591 0.798 1.18 1.6 1.79 2.42 0.536 0.721 1.07 1.44 1.62 2.18 1.16 1.68 1.16 1.68 1.16 2.68-6.01 0.0991-12 0.172-18 0.22-2.04 0.0201-4.09 0.0473-6.13 0.082-2.94 0.0487-5.89 0.0712-8.83 0.0889-0.91 0.0206-1.82 0.0413-2.76 0.0626-5.59 0.00196-8.83-0.666-13.2-4.45-4-5.26-4-5.26-4-8h-2c-1.48-2.05-1.48-2.05-3.19-4.88-2.99-4.86-6.17-9.52-9.53-14.1-1.29-2-1.29-2-1.29-4h-2v-3h-60v27c-3.6 8.4-3.6 8.4-8 11-2.86 0.454-2.86 0.454-5.96 0.391-1.11-0.0129-2.22-0.0258-3.37-0.0391-1.73-0.0503-1.73-0.0503-3.49-0.102-1.17-0.018-2.34-0.0361-3.54-0.0547-2.88-0.047-5.76-0.113-8.64-0.195-0.0701-18-0.123-36-0.155-54.1-0.0155-8.37-0.0365-16.7-0.0709-25.1-0.0299-7.29-0.0493-14.6-0.0559-21.9-0.00391-3.86-0.0131-7.72-0.0349-11.6-0.0204-3.64-0.0266-7.27-0.0221-10.9-0.00122-1.97-0.0173-3.93-0.0339-5.9 0.00412-1.18 0.00825-2.36 0.0125-3.57-0.00277-1.02-0.00553-2.04-0.00838-3.09 0.608-4.79 2.39-8.01 5.93-11.3 4.63-2.23 8.44-2.21 13.5-2.16zm13.9 39.5c-0.0884 2.45-0.115 4.87-0.0977 7.32 0.00141 0.731 0.00283 1.46 0.00429 2.22 0.00561 2.34 0.0182 4.69 0.0309 7.03 0.00501 1.59 0.00958 3.17 0.0137 4.76 0.011 3.89 0.0283 7.79 0.0488 11.7 10.7 0.0463 21.5 0.0819 32.2 0.104 4.98 0.0104 9.97 0.0246 15 0.0473 4.81 0.0217 9.62 0.0337 14.4 0.0389 1.84 0.00369 3.67 0.0109 5.51 0.0217 2.57 0.0145 5.14 0.0165 7.71 0.0156 0.758 0.00719 1.52 0.0144 2.3 0.0218 4.93-0.0192 8.68-0.575 12.7-3.59 4.05-4.36 5.2-8.08 5.39-14-0.284-4.81-1.44-8.04-5-11.4-5.97-4.71-10.3-5.43-17.8-5.41-0.77-0.00175-1.54-0.0035-2.33-0.00531-2.54-0.00439-5.08-0.00149-7.61 0.00189-1.76-6.74e-4 -3.53-0.00164-5.29-0.0029-3.69-0.00147-7.38 6.67e-4 -11.1 0.00534-4.74 0.00571-9.48 0.00241-14.2-0.00357-3.64-0.0036-7.28-0.00247-10.9 1.28e-4 -1.75 6.69e-4 -3.5-1.58e-4 -5.25-0.00248-2.44-0.00253-4.87 0.00131-7.31 0.0069-0.729-0.00202-1.46-0.00405-2.21-0.00613-3.33-0.277-3.33-0.277-6.09 1.14z" fill="#060200"/>
<path transform="translate(1376 837)" d="m0 0c1.1-0.00716 2.19-0.0143 3.32-0.0217 1.21-0.00269 2.42-0.00538 3.66-0.00815 1.9-0.00986 1.9-0.00986 3.84-0.0199 4.21-0.021 8.43-0.0314 12.6-0.0414 1.45-0.00405 2.9-0.00816 4.35-0.0124 6.82-0.0191 13.6-0.0333 20.4-0.0416 7.87-0.00977 15.7-0.0361 23.6-0.0765 6.08-0.0302 12.2-0.045 18.2-0.0483 3.63-0.00235 7.26-0.0113 10.9-0.0365 4.05-0.0276 8.11-0.0234 12.2-0.0165 1.2-0.0128 2.4-0.0256 3.64-0.0388 10.6 0.0666 10.6 0.0666 15 4.51 3 7 3 7 3 33h-116c0.495 10.4 0.495 10.4 1 21 26.4 0.33 52.8 0.66 80 1v32h-81v23h116c0 27.3 0 27.3-4.9 33.3-5.04 2.7-10.1 2.23-15.8 2.21-1.29 0.0102-2.57 0.0204-3.9 0.031-3.52 0.0267-7.05 0.0279-10.6 0.0229-2.94-0.00214-5.89 0.00763-8.83 0.0172-6.95 0.0222-13.9 0.0231-20.8 0.011-7.16-0.0121-14.3 0.0125-21.5 0.0551-6.16 0.0353-12.3 0.0472-18.5 0.0407-3.67-0.00362-7.35 0.00159-11 0.0294-4.1 0.0299-8.2 0.0112-12.3-0.012-1.21 0.0153-2.42 0.0306-3.67 0.0463-6.44-0.0806-10.4-0.59-15.1-5.21-2.33-3.13-2.3-6.09-2.31-9.84-0.00426-1.09-0.00853-2.18-0.0129-3.31 4.53e-4 -1.2 9.06e-4 -2.39 0.00137-3.63-0.00336-1.26-0.00672-2.52-0.0102-3.82-0.00884-3.46-0.0112-6.92-0.0118-10.4-9.49e-4 -2.89-0.00463-5.78-0.00817-8.66-0.00814-6.81-0.0106-13.6-0.00987-20.4 6.01e-4 -7.03-0.00995-14.1-0.0257-21.1-0.0131-6.03-0.0184-12.1-0.0178-18.1 2.55e-4 -3.6-0.00259-7.21-0.0132-10.8-0.0115-4.02-0.00693-8.04-8.95e-4 -12.1-0.00843-1.79-0.00843-1.79-0.017-3.61 0.00419-1.1 0.00839-2.19 0.0127-3.32-5.45e-4 -0.95-0.00109-1.9-0.00165-2.88 0.414-4.39 1.47-6.93 4.75-9.89 3.58-2.5 5.35-2.88 9.67-2.9z" fill="#060200"/>
<path transform="translate(1030 837)" d="m0 0c1.7-0.00203 3.41-0.00494 5.11-0.0087 3.56-0.0044 7.11 0.00193 10.7 0.016 4.53 0.0171 9.05 0.00724 13.6-0.0107 3.52-0.0109 7.03-0.00736 10.5 3.83e-4 1.67 0.00198 3.34-3.84e-4 5-0.00744 17.2-0.0568 31 2.88 44.4 14.4 5 5.11 5 5.11 5 8h2c4.14 7.13 7.42 14.2 10 22 0.341 0.821 0.682 1.64 1.03 2.49 1.32 4.81 1.29 9.36 1.3 14.3 0.00999 1.57 0.00999 1.57 0.0202 3.17 0.0101 2.21 0.0148 4.42 0.0145 6.64 0.00434 3.34 0.0406 6.68 0.0786 10 0.114 21.2-4 38.4-19.1 54.2-10.2 9.51-21.3 14.3-35.2 14.3-0.78 0.00336-1.56 0.00672-2.36 0.0102-2.57 0.00947-5.14 0.0115-7.71 0.0125-1.79 0.00321-3.58 0.00658-5.38 0.0101-3.75 0.00598-7.51 0.00784-11.3 0.00725-4.8-1.02e-4 -9.6 0.0136-14.4 0.0308-3.7 0.0111-7.4 0.0131-11.1 0.0126-1.77 0.00118-3.54 0.00558-5.31 0.0133-2.48 0.00984-4.96 0.00691-7.44 8.95e-4 -1.09 0.00843-1.09 0.00843-2.2 0.017-6.33-0.0388-11.8-1.58-17.5-4.2-0.753-0.344-1.51-0.688-2.28-1.04-2.74-1.3-5.46-2.64-8.16-4.02v-2c-0.851-0.0889-0.851-0.0889-1.72-0.18-6.87-2.47-12.1-12.5-15.3-18.8-1.05-2.28-2.08-4.58-3.07-6.89-0.875-2.08-0.875-2.08-1.92-3.86-4.15-9.24-3.36-21.4-3.33-31.4 0.00316-2.24-0.0204-4.47-0.0457-6.71-0.0567-13 0.923-26.6 7.36-38.2 0.409-0.784 0.817-1.57 1.24-2.38 7.58-13.7 18.4-23.5 33.4-28.2 7.93-2.1 15.9-1.85 24.1-1.82zm-27.4 47.2c-4.26 5.87-5.78 10.8-5.75 18-0.00524 0.721-0.0105 1.44-0.0159 2.18-0.00638 1.52-0.00513 3.03 0.00343 4.55 0.00849 2.29-0.0203 4.58-0.052 6.87-0.0454 9.62 1.1 17.2 6.31 25.5 6.66 6.47 13.7 7.24 22.8 7.27 1.27 0.00638 2.54 0.0128 3.85 0.0193 1.37 0.00153 2.74 0.00264 4.11 0.00337 1.43 0.00322 2.85 0.00658 4.28 0.0101 2.98 0.00597 5.96 0.00784 8.94 0.00725 3.8-1.02e-4 7.6 0.0136 11.4 0.0308 2.94 0.0112 5.89 0.0131 8.83 0.0126 1.4 0.00117 2.8 0.00554 4.2 0.0133 13.2 0.468 13.2 0.468 25.1-4.49 9.28-9.49 10.2-19.3 10.1-32.1 0.02-1.25 0.04-2.5 0.0605-3.79-0.00421-8.05-1.16-14.5-4.5-21.8h-2c-0.116-0.891-0.116-0.891-0.234-1.8-1.02-2.94-2.42-3.72-5.02-5.39-0.768-0.509-1.54-1.02-2.33-1.54-4.56-2.39-9.06-2.4-14.1-2.41-0.654-0.00336-1.31-0.00672-1.98-0.0102-2.15-0.00946-4.3-0.0115-6.45-0.0125-1.5-0.00322-3.01-0.00658-4.51-0.0101-3.15-0.00598-6.29-0.00784-9.44-0.00725-4.02 1.02e-4 -8.05-0.0136-12.1-0.0308-3.1-0.0111-6.21-0.0131-9.31-0.0126-1.48-0.00118-2.97-0.00558-4.45-0.0133-2.08-0.00985-4.15-0.0069-6.23-8.95e-4 -1.77-0.00214-1.77-0.00214-3.57-0.00432-7.45 0.563-12.8 3.71-18 9.06z" fill="#060200"/>
<path transform="translate(1184 836)" d="m0 0c1.04-0.0619 2.08-0.124 3.15-0.188 5.9-0.0888 9.51 0.597 14 4.55 1.26 1.28 2.51 2.56 3.74 3.87 1.6 1.69 3.26 3.32 4.93 4.94 3.24 3.15 6.45 6.34 9.65 9.53 2.01 2 4.02 4 6.04 6 1.28 1.27 2.55 2.55 3.83 3.82 0.603 0.596 1.21 1.19 1.83 1.81 4.17 4.19 4.17 4.19 4.17 6.42 1.32 0.66 2.64 1.32 4 2v2c1.48 0.495 1.48 0.495 3 1 1.22 1.45 2.44 2.91 3.62 4.4 1.73 2 3.74 3.57 5.8 5.21 1.75 1.53 3.2 3.18 4.7 4.95 3.62 4.25 7.53 8.15 11.5 12 2.48 2.44 4.83 4.91 7.03 7.6 2.26 2.89 2.26 2.89 5.25 5.22 2.92 2.44 5.19 4.94 7.61 7.85 3.73 4.46 3.73 4.46 8.45 7.71 0.495-49.5 0.495-49.5 1-100 24 0 24 0 29 3 5.04 5.04 4.12 12.9 4.15 19.5-4.53e-4 1.1-9.06e-4 2.21-0.00137 3.35 0.00336 1.18 0.00672 2.36 0.0102 3.57 0.00784 3.22 0.0112 6.44 0.0118 9.66 7.13e-4 2.01 0.00285 4.03 0.0055 6.04 0.00923 7.04 0.0133 14.1 0.0125 21.1-6.01e-4 6.55 0.00996 13.1 0.0257 19.6 0.0131 5.63 0.0184 11.3 0.0178 16.9-2.54e-4 3.36 0.00256 6.72 0.0132 10.1 0.0098 3.75 0.00692 7.49 8.95e-4 11.2 0.00562 1.1 0.0112 2.21 0.017 3.35-0.0328 8.02-0.388 14.5-6.26 20.5-4.97 1.66-10.1 1.31-15.3 1.38-1.13 0.0374-2.26 0.0748-3.42 0.113-9.32 0.0988-9.32 0.0988-12.9-2.88-0.777-0.862-1.55-1.72-2.36-2.61-0.784-0.722-1.57-1.44-2.38-2.19-1.62-1.81-1.62-1.81-1.62-3.81-1.98-0.99-1.98-0.99-4-2v-2c-1.98-0.99-1.98-0.99-4-2v-2c-1.98-0.99-1.98-0.99-4-2v-2c-0.897-0.402-0.897-0.402-1.81-0.812-2.19-1.19-3.6-2.28-5.19-4.19v-2l-4-2v-2l-4-2v-2c-1.48-0.495-1.48-0.495-3-1-1.2-1.43-2.39-2.86-3.55-4.32-1.53-1.77-3.15-3.19-4.95-4.68-3.26-2.7-5.79-5.74-8.5-9-1.47-1.21-2.94-2.42-4.42-3.61-2.4-2.11-4.37-4.56-6.43-6.99-3.24-3.62-6.73-6.99-10.2-10.4-1.34-1.31-2.63-2.67-3.91-4.04v-2c-0.578-0.227-1.15-0.454-1.75-0.688-2.84-1.66-4.2-3.74-6.25-6.31-1.8-1.61-3.64-3.15-5.51-4.67-1.49-1.33-1.49-1.33-2.49-3.33-0.99-0.33-1.98-0.66-3-1v100c-24 0-24 0-27-1-3.94-4.41-5.12-7.45-5.15-13.3-0.00716-1.1-0.0143-2.2-0.0217-3.33-0.00269-1.2-0.00538-2.41-0.00815-3.65-0.00657-1.27-0.0131-2.54-0.0199-3.84-0.021-4.21-0.0314-8.42-0.0414-12.6-0.00405-1.45-0.00817-2.9-0.0124-4.35-0.019-6.81-0.0333-13.6-0.0416-20.4-0.00977-7.86-0.0361-15.7-0.0765-23.6-0.0302-6.08-0.045-12.2-0.0483-18.2-0.00235-3.63-0.0113-7.25-0.0365-10.9-0.0276-4.05-0.0234-8.1-0.0165-12.1-0.0192-1.8-0.0192-1.8-0.0388-3.63 0.0395-6.3 0.182-10.3 4.51-15 5.22-3.97 10.4-3.66 16.7-3.75z" fill="#060200"/>
<path transform="translate(414 837)" d="m0 0c1.1-0.00643 1.1-0.00643 2.22-0.013 1.54-0.00572 3.08-0.00626 4.62-0.00191 2.34 0.00315 4.68-0.0203 7.02-0.0457 1.5-0.00227 3.01-0.00298 4.51-0.00195 0.692-0.00921 1.38-0.0184 2.1-0.0279 5.87 0.055 10.7 1.3 15 5.45 2.64 4.16 4.68 8.53 6.74 13 0.891 1.91 1.78 3.81 2.68 5.71 0.425 0.91 0.85 1.82 1.29 2.76 1.36 2.89 2.78 5.74 4.22 8.59 2.11 4.17 4.12 8.38 6.1 12.6 3.71 7.92 7.56 15.7 11.7 23.4 2.22 4.1 4.19 8.25 6.06 12.5 1.84 4.18 3.82 8.29 5.79 12.4 0.437 0.916 0.874 1.83 1.32 2.78 4.55 9.52 9.27 18.9 14.1 28.4 0.354 0.7 0.709 1.4 1.07 2.12 0.665 1.31 1.33 2.62 2 3.93 2.59 5.12 4.72 10.4 6.79 15.8-4.61 0.0744-9.22 0.129-13.8 0.165-1.57 0.0151-3.13 0.0355-4.7 0.0615-2.26 0.0365-4.51 0.0534-6.77 0.0667-0.696 0.0155-1.39 0.031-2.11 0.0469-5.86 0.00201-8.8-1.81-13.1-5.52-2.97-3.43-4.78-6.93-6.7-11-0.351-0.724-0.701-1.45-1.06-2.19-0.904-1.87-1.8-3.74-2.69-5.62-0.33-0.66-0.66-1.32-1-2h-88c-2.97 6.27-5.94 12.5-9 19-7.15 6.13-8.81 7.16-17.3 7.1-1.06-0.00212-1.06-0.00212-2.14-0.00429-2.25-0.00559-4.5-0.0181-6.76-0.0309-1.53-0.00502-3.06-0.00958-4.58-0.0137-3.74-0.011-7.49-0.0283-11.2-0.0488 0.698-3.79 1.7-6.7 3.5-10.1 2.7-5.26 5.25-10.6 7.75-15.9 3.53-7.53 7.31-14.9 11.2-22.2 2.88-5.42 5.53-10.9 8.04-16.5 1.68-3.66 3.48-7.25 5.29-10.8 2.96-5.86 5.82-11.8 8.62-17.7 0.376-0.795 0.751-1.59 1.14-2.41 1.89-4.01 3.77-8.02 5.64-12 3.86-8.26 7.83-16.5 12-24.6 0.4-0.782 0.8-1.56 1.21-2.37 5.68-10.8 5.68-10.8 10.7-13.5 3.53-1.07 6.85-1.16 10.5-1.16zm7.32 34.3c-0.966 1.77-0.966 1.77-1.83 3.93-2.18 5.11-4.53 10.1-6.92 15.1-0.434 0.91-0.868 1.82-1.31 2.76-4.22 8.83-8.5 17.6-13 26.3-0.367 0.707-0.734 1.41-1.11 2.14-0.339 0.643-0.677 1.29-1.03 1.95-0.94 1.93-0.94 1.93-0.748 4.79h56c-0.873-5.24-2.15-8.76-4.56-13.3-0.735-1.43-1.47-2.85-2.2-4.28-0.374-0.73-0.749-1.46-1.13-2.21-1.74-3.46-3.36-6.99-4.98-10.5-4.36-9.41-9.22-18.6-14.1-27.7-1.22-0.0745-1.22-0.0745-3 1z" fill="#060200"/>
<path transform="translate(625 569)" d="m0 0c0.916 0.00524 1.83 0.0105 2.78 0.0159 0.891 0.0025 1.78 5e-3 2.7 0.00757 1.71 0.0137 1.71 0.0137 3.45 0.0276 5.41 0.0309 5.41 0.0309 10.9 0.0625 0.33 8.91 0.66 17.8 1 27 12.9 0.495 12.9 0.495 26 1 0.91 2.73 1.13 4.35 1.13 7.16 0.00129 0.793 0.00258 1.59 0.00391 2.4-0.00387 0.824-0.00773 1.65-0.0117 2.5 0.00387 0.828 0.00773 1.66 0.0117 2.51-0.00129 0.792-0.00258 1.58-0.00391 2.4-0.00113 0.725-0.00226 1.45-0.00342 2.2-0.129 1.83-0.129 1.83-1.13 3.83-1.02 0.0376-1.02 0.0376-2.06 0.0759-3.08 0.116-6.17 0.239-9.25 0.362-1.07 0.0393-2.14 0.0786-3.25 0.119-1.03 0.0419-2.06 0.0838-3.12 0.127-0.948 0.0367-1.9 0.0733-2.87 0.111-2.59 0.12-2.59 0.12-5.45 1.21-0.33 8.91-0.66 17.8-1 27h-22c-1.29-2.57-1.21-4.57-1.32-7.45-0.0419-1.08-0.0838-2.15-0.127-3.26-0.0393-1.13-0.0786-2.26-0.119-3.42-0.0432-1.14-0.0864-2.27-0.131-3.44-0.106-2.81-0.208-5.62-0.307-8.43-5.53-3.47-10.5-3.54-16.9-3.69-0.975-0.0342-1.95-0.0683-2.95-0.104-2.39-0.082-4.78-0.151-7.17-0.209-1.5-4.02-2.25-7.34-2.19-11.6 0.00645-0.92 0.0129-1.84 0.0195-2.79 0.153-2.36 0.377-4.36 1.17-6.59 2.5-1.25 4.32-1.17 7.12-1.25 1.02-0.0329 2.04-0.0657 3.08-0.0996 2.15-0.0611 4.3-0.118 6.45-0.172 1.02-0.0342 2.04-0.0683 3.09-0.104 0.935-0.0251 1.87-0.0501 2.83-0.0759 2.68-0.152 2.68-0.152 5.42-2.3 0.493-2.5 0.493-2.5 0.477-5.41 0.0464-1.61 0.0464-1.61 0.0938-3.25 0.018-1.12 0.0361-2.25 0.0547-3.4 0.0508-2.22 0.105-4.44 0.164-6.66 0.0176-0.988 0.0351-1.98 0.0532-2.99 0.206-2.98 0.308-3.24 3.29-3.4z" fill="#060200"/>
<path transform="translate(534 1042)" d="m0 0c0.86-9.57e-4 1.72-0.00191 2.61-0.0029 1.82-6.81e-4 3.64 0.00117 5.46 0.00534 2.8 0.00536 5.59 4.89e-5 8.39-0.00635 1.76 6.61e-4 3.53 0.00194 5.29 0.00391 0.842-0.00202 1.68-0.00405 2.55-0.00613 5.89 0.024 5.89 0.024 7.01 1.14v7h-34v3c1.33 0.014 1.33 0.014 2.69 0.0283 3.3 0.0441 6.6 0.106 9.91 0.179 1.43 0.0282 2.86 0.0494 4.28 0.0635 2.06 0.0215 4.11 0.0681 6.17 0.12 1.24 0.0209 2.47 0.0419 3.75 0.0635 3.75 0.638 4.96 1.53 7.21 4.55 0.531 2.88 0.531 2.88 0.5 6 0.0103 1.03 0.0206 2.06 0.0312 3.12-0.685 3.7-1.49 4.65-4.53 6.88-2.98 0.552-5.9 0.466-8.92 0.391-0.86-0.00566-1.72-0.0113-2.61-0.0172-2.74-0.0224-5.48-0.0725-8.22-0.123-1.86-0.0201-3.72-0.0383-5.58-0.0547-4.56-0.0441-9.11-0.113-13.7-0.195v-8h34c-0.495-1.48-0.495-1.48-1-3-0.858-0.00935-1.72-0.0187-2.6-0.0283-3.19-0.0441-6.38-0.106-9.57-0.179-1.38-0.0282-2.76-0.0494-4.14-0.0635-1.99-0.0215-3.97-0.0702-5.96-0.12-1.79-0.0314-1.79-0.0314-3.62-0.0635-3.69-0.646-4.9-1.58-7.12-4.55-0.426-2.91-0.426-2.91-0.312-6.06 0.0245-1.04 0.049-2.09 0.0742-3.16 0.238-2.78 0.238-2.78 1.24-5.78 3.32-1.66 7.04-1.14 10.7-1.13z" fill="#060200"/>
<path transform="translate(786 1042)" d="m0 0c1.59-0.0215 3.19-0.0555 4.78-0.103 14.9-0.437 14.9-0.437 19.5 3.36 4.08 4.45 4.87 9.18 4.69 15.1-0.413 4.45-1.28 7.91-4.12 11.4-3.95 3.11-7.97 2.77-12.8 2.76-0.748 9.57e-4 -1.5 0.00191-2.27 0.0029-1.58 6.8e-4 -3.16-0.00116-4.74-0.00534-2.43-0.00537-4.85-4.05e-5 -7.27 0.00635-1.53-6.61e-4 -3.07-0.00194-4.6-0.00391-1.09 0.00304-1.09 0.00304-2.21 0.00613-5.11-0.024-5.11-0.024-6.22-1.14-0.1-2.21-0.131-4.42-0.133-6.62-9.57e-4 -0.662-0.00191-1.32-0.0029-2.01-6.82e-4 -1.4 0.00117-2.8 0.00534-4.21 0.00535-2.15 5.44e-5 -4.31-0.00635-6.46 6.61e-4 -1.36 0.00194-2.72 0.00391-4.08 0.00113-1.25 0.00226-2.49 0.00342-3.77 0.293-6.45 10.2-4.2 15.3-4.26zm-6.22 8.41v16c3.6 0.0538 7.21 0.0936 10.8 0.125 1.02 0.0168 2.05 0.0335 3.1 0.0508 0.983 0.00645 1.97 0.0129 2.98 0.0195 0.906 0.0105 1.81 0.0209 2.75 0.0317 2.63-0.0654 2.63-0.0654 5.36-2.23 1.2-3.59 1.33-6.23 1-10-1.24-2.43-1.24-2.43-4-4-3.76-0.497-7.47-0.375-11.2-0.25-1.55 0.0271-1.55 0.0271-3.12 0.0547-2.54 0.0471-5.08 0.119-7.62 0.195z" fill="#060200"/>
<path transform="translate(925 1042)" d="m0 0c1.6 1.59e-4 3.21 0.00585 4.81 0.0159 0.842 0.00141 1.68 0.00283 2.55 0.00429 2.7 0.00562 5.4 0.0182 8.1 0.0309 1.83 0.00501 3.65 0.00958 5.48 0.0137 4.49 0.0111 8.97 0.0283 13.5 0.0488 0.381 2.33 0.713 4.66 1 7-1 1-1 1-3.87 1.11-1.25-0.00524-2.5-0.0105-3.79-0.0159-0.997-0.00212-0.997-0.00212-2.01-0.00429-2.13-0.00561-4.26-0.0182-6.39-0.0309-1.44-0.00501-2.88-0.00958-4.32-0.0137-3.54-0.011-7.08-0.0283-10.6-0.0488v4h22v8h-22c0.33 1.32 0.66 2.64 1 4 9.57 0.33 19.1 0.66 29 1 1 4 1 4 0 7-5.39 0.0246-10.8 0.0428-16.2 0.0549-1.84 0.00504-3.67 0.0119-5.51 0.0205-2.63 0.0121-5.27 0.0178-7.9 0.0222-1.24 0.00774-1.24 0.00774-2.5 0.0156-1.97 1.96e-4 -3.94-0.0513-5.91-0.113-1.88-1.88-1.13-5.12-1.13-7.62-9.57e-4 -0.662-0.00191-1.32-0.0029-2.01-6.82e-4 -1.4 0.00117-2.8 0.00534-4.21 0.00535-2.15 5.44e-5 -4.31-0.00635-6.46 6.61e-4 -1.36 0.00194-2.72 0.00391-4.08 0.00113-1.25 0.00226-2.49 0.00342-3.77 0.192-4.23 0.358-3.83 4.73-3.97z" fill="#060200"/>
<path transform="translate(825 1042)" d="m0 0c1.6 1.59e-4 3.21 0.00585 4.81 0.0159 0.842 0.00141 1.68 0.00283 2.55 0.00429 2.7 0.00562 5.4 0.0182 8.1 0.0309 1.83 0.00501 3.65 0.00958 5.48 0.0137 4.49 0.0111 8.97 0.0283 13.5 0.0488v8h-30v4h22v8h-22c0.33 1.32 0.66 2.64 1 4 9.57 0.33 19.1 0.66 29 1v7c-5.39 0.0246-10.8 0.0428-16.2 0.0549-1.84 0.00504-3.67 0.0119-5.51 0.0205-2.63 0.0121-5.27 0.0178-7.9 0.0222-1.24 0.00774-1.24 0.00774-2.5 0.0156-1.97 1.96e-4 -3.94-0.0513-5.91-0.113-1.88-1.88-1.13-5.12-1.13-7.62-9.57e-4 -0.662-0.00191-1.32-0.0029-2.01-6.82e-4 -1.4 0.00117-2.8 0.00534-4.21 0.00535-2.15 5.44e-5 -4.31-0.00635-6.46 6.61e-4 -1.36 0.00194-2.72 0.00391-4.08 0.00113-1.25 0.00226-2.49 0.00342-3.77 0.192-4.23 0.358-3.83 4.73-3.97z" fill="#060200"/>
<path transform="translate(719 1042)" d="m0 0c0.801 0.00202 1.6 0.00405 2.43 0.00613 0.817-9.57e-4 1.63-0.00191 2.48-0.0029 1.73-6.82e-4 3.46 0.00117 5.2 0.00534 2.66 0.00535 5.32 5.5e-5 7.98-0.00635 1.68 6.61e-4 3.36 0.00194 5.04 0.00391 0.801-0.00202 1.6-0.00405 2.43-0.00613 5.61 0.024 5.61 0.024 6.73 1.14v7h-30v4h21v8h-21v5c1.31-0.00786 1.31-0.00786 2.65-0.0159 3.23-0.017 6.46-0.0296 9.69-0.0391 1.4-0.00504 2.8-0.0119 4.2-0.0205 2.01-0.0121 4.02-0.0173 6.02-0.0222 1.81-0.00786 1.81-0.00786 3.67-0.0159 2.78 0.114 2.78 0.114 3.78 1.11 0.125 2.5 0.125 2.5 0 5-1.82 1.82-4.31 1.13-6.73 1.14-0.801-0.00202-1.6-0.00405-2.43-0.00613-1.23 0.00144-1.23 0.00144-2.48 0.0029-1.73 6.82e-4 -3.46-0.00117-5.2-0.00534-2.66-0.00535-5.32-5.5e-5 -7.98 0.00635-1.68-6.61e-4 -3.36-0.00194-5.04-0.00391-0.801 0.00202-1.6 0.00405-2.43 0.00613-5.61-0.024-5.61-0.024-6.73-1.14-0.1-2.21-0.131-4.42-0.133-6.62-9.57e-4 -0.662-0.00191-1.32-0.0029-2.01-6.82e-4 -1.4 0.00117-2.8 0.00534-4.21 0.00535-2.15 5.44e-5 -4.31-0.00635-6.46 6.61e-4 -1.36 0.00194-2.72 0.00391-4.08 0.00113-1.25 0.00226-2.49 0.00342-3.77 0.228-5.02 2.38-3.97 6.86-3.99z" fill="#060200"/>
<path transform="translate(592 1042)" d="m0 0c1.15-0.049 2.3-0.098 3.49-0.148 3.2 0.523 3.2 0.523 5.54 2.91 3.66 5.75 3.66 5.75 3.66 9.61h2c3.33 6.67 6.67 13.3 10 20-1.6 0.108-3.21 0.186-4.81 0.25-0.893 0.0464-1.79 0.0928-2.71 0.141-0.819-0.129-1.64-0.258-2.48-0.391-0.436-0.66-0.873-1.32-1.32-2-1.52-2.24-1.52-2.24-4.13-2.45-0.948 0.0209-1.9 0.0419-2.87 0.0635-1.54 0.0193-1.54 0.0193-3.12 0.0391-1.07 0.0335-2.14 0.067-3.25 0.102-1.63 0.0271-1.63 0.0271-3.28 0.0547-2.68 0.0472-5.35 0.113-8.03 0.195-0.33 0.99-0.66 1.98-1 3-2.52 1.26-4.31 1.1-7.12 1.06-0.91-0.00902-1.82-0.018-2.76-0.0273-0.699-0.0116-1.4-0.0232-2.12-0.0352 1.51-4.11 3.49-7.77 5.69-11.6 0.524-0.907 0.524-0.907 1.06-1.83 0.723-1.25 1.45-2.5 2.17-3.75 1.05-1.8 2.09-3.6 3.13-5.4 5.58-9.63 5.58-9.63 12.3-9.83zm-0.312 8.38c-1.06 1.6-2.08 3.23-3.06 4.88-0.548 0.905-1.1 1.81-1.66 2.74-1.43 2.23-1.43 2.23-1.28 4.38h13c-0.869-3.47-1.64-5.32-3.5-8.25-0.443-0.706-0.887-1.41-1.34-2.14-0.382-0.531-0.763-1.06-1.16-1.61h-1z" fill="#060200"/>
<path transform="translate(966,1042)" d="m0 0h8c0.33 7.59 0.66 15.2 1 23h25v-23h8c1.29 2.58 1.13 4.46 1.13 7.34 0.00193 1.59 0.00193 1.59 0.00391 3.22-0.00387 1.11-0.00773 2.23-0.0117 3.38 0.0058 1.67 0.0058 1.67 0.0117 3.37-0.00129 1.06-0.00258 2.13-0.00391 3.22-0.00113 0.977-0.00226 1.95-0.00342 2.96-0.129 2.51-0.129 2.51-1.13 5.51h-2v2c-5.41 1.8-11.4 1.31-17.1 1.35-1.55 0.0166-3.09 0.0439-4.64 0.082-2.24 0.0549-4.47 0.0767-6.71 0.0913-1.03 0.034-1.03 0.034-2.08 0.0687-3.71-0.0162-5.44-0.535-8.46-2.74-2.41-3.34-2.66-4.92-2.58-8.99 0.0116-1.15 0.0232-2.3 0.0352-3.49 0.0374-1.19 0.0748-2.39 0.113-3.62 0.0142-1.21 0.0284-2.42 0.043-3.66 0.15-8.9 0.15-8.9 1.33-10.1z" fill="#060200"/>
<path transform="translate(1012,1042)" d="m0 0c12.5-1.08 12.5-1.08 16.1 1.56 1.47 1.94 1.47 1.94 2.73 3.88 1.15 1.9 1.15 1.9 4.05 2 1.05-0.217 1.05-0.217 2.12-0.438 0.66-1.32 1.32-2.64 2-4h2c0.33-0.99 0.66-1.98 1-3h13c-3.44 4.72-6.87 8.87-11 13-0.701 1.32-1.37 2.65-2 4 0.771 0.831 1.54 1.66 2.34 2.52 1.01 1.1 2.03 2.2 3.04 3.29 0.508 0.547 1.02 1.09 1.54 1.66 2.24 2.43 4.25 4.77 6.09 7.53-11.4 1.08-11.4 1.08-15.3-1.56-1.81-1.94-1.81-1.94-3.32-3.91-0.451-0.505-0.902-1.01-1.37-1.53h-3c-1.18 1.57-1.18 1.57-2.31 3.5-2.34 2.97-3.36 3.46-7.19 3.96-3.52-0.0249-6.99-0.162-10.5-0.465 3.02-3.91 6.21-6.84 10-10 1.38-1.63 2.73-3.29 4-5-3.13-6.76-8.3-11.4-14-16v-1z" fill="#060200"/>
<path transform="translate(899 595)" d="m0 0c0.639 0.33 1.28 0.66 1.94 1v2c0.99 0.33 1.98 0.66 3 1 2.13 3.55 3.04 7.07 2.88 11.2-0.941 3.03-2.04 5.23-3.88 7.81-0.773 1.11-0.773 1.11-1.56 2.25-3.84 2.76-7.79 2.94-12.4 2.75-3.92-0.955-7.63-2.64-10-6-2.28-4.89-2.27-8.87-1-14 3.95-9.14 12.3-10.9 21.1-8z" fill="#060200"/>
<path transform="translate(967 595)" d="m0 0c3.87 2.43 5.24 3.56 6.94 7.88 1.09 5.55 0.98 9.97-2.25 14.8h-2v2c-3.94 2.63-7.3 3.08-12 3-3.75-0.991-6.78-2.85-10-5-2.79-5.47-3.48-9.02-1.8-15 1.52-3.9 3.45-6.26 7.05-8.36 5.16-1.29 9.17-1.31 14.1 0.625z" fill="#060200"/>
<path transform="translate(936,631)" d="m0 0c3.62 4.7 4.77 8.63 4.52 14.6-1.16 5.46-4.99 8.37-9.39 11.4-3.98 1.27-7.21 1.39-11.1 0-3.26-2.15-6.23-4.47-8-8-0.581-4.85-1.09-9.81 1.13-14.3 5.92-7.31 14.7-8.59 22.9-3.72z" fill="#060200"/>
<path transform="translate(933,561)" d="m0 0c3.47 2.89 6.65 6.56 7.31 11.1 0.251 4.96 0.121 8.05-3.18 11.9-3.67 3.77-6.18 4.16-11.4 4.31-6.22-0.0343-6.22-0.0343-9.88-2.69-4.15-6.15-4.75-10.3-3.81-17.7 1.7-3.99 4.3-5.69 8.25-7.44 4.49-0.674 8.4-1.08 12.8 0.438z" fill="#060200"/>
<path transform="translate(668,1042)" d="m0 0h8v24h31v7c-1.84 1.84-4.43 1.13-6.88 1.14-0.823-0.00202-1.65-0.00405-2.49-0.00613-0.84 9.57e-4 -1.68 0.00191-2.54 0.0029-1.78 6.82e-4 -3.56-0.00117-5.34-0.00534-2.73-0.00535-5.46-5.5e-5 -8.2 0.00635-1.72-6.61e-4 -3.45-0.00194-5.17-0.00391-0.823 0.00202-1.65 0.00405-2.49 0.00613-5.77-0.024-5.77-0.024-6.88-1.14-0.1-2.21-0.131-4.42-0.133-6.62-9.57e-4 -0.662-0.00191-1.32-0.0029-2.01-6.82e-4 -1.4 0.00117-2.8 0.00534-4.21 0.00535-2.15 5.44e-5 -4.31-0.00635-6.46 6.61e-4 -1.36 0.00194-2.72 0.00391-4.08 0.00113-1.25 0.00226-2.49 0.00342-3.77 0.129-2.85 0.129-2.85 1.13-3.85z" fill="#060200"/>
<path transform="translate(623,1042)" d="m0 0h8v24h31v7c-1.84 1.84-4.43 1.13-6.88 1.14-0.823-0.00202-1.65-0.00405-2.49-0.00613-0.84 9.57e-4 -1.68 0.00191-2.54 0.0029-1.78 6.82e-4 -3.56-0.00117-5.34-0.00534-2.73-0.00535-5.46-5.5e-5 -8.2 0.00635-1.72-6.61e-4 -3.45-0.00194-5.17-0.00391-0.823 0.00202-1.65 0.00405-2.49 0.00613-5.77-0.024-5.77-0.024-6.88-1.14-0.1-2.21-0.131-4.42-0.133-6.62-9.57e-4 -0.662-0.00191-1.32-0.0029-2.01-6.82e-4 -1.4 0.00117-2.8 0.00534-4.21 0.00535-2.15 5.44e-5 -4.31-0.00635-6.46 6.61e-4 -1.36 0.00194-2.72 0.00391-4.08 0.00113-1.25 0.00226-2.49 0.00342-3.77 0.129-2.85 0.129-2.85 1.13-3.85z" fill="#060200"/>
<path transform="translate(904,1042)" d="m0 0h8c0.175 3.85 0.281 7.71 0.375 11.6 0.0503 1.09 0.101 2.17 0.152 3.29 0.098 5.37 0.133 9.13-3.43 13.4-2.67 2.65-4.22 3.75-8.08 3.9-1.87-0.00786-1.87-0.00786-3.78-0.0159-0.995-0.00212-0.995-0.00212-2.01-0.00429-2.12-0.0056-4.24-0.0182-6.36-0.0309-1.44-0.00501-2.87-0.00958-4.31-0.0137-3.52-0.011-7.04-0.0283-10.6-0.0488v-8c0.772-0.0146 1.54-0.0292 2.34-0.0442 3.49-0.0744 6.98-0.171 10.5-0.268 1.21-0.0226 2.43-0.0451 3.68-0.0684 1.16-0.0354 2.33-0.0709 3.53-0.107l3.25-0.0793c2.71-0.233 2.71-0.233 4.57-1.67 1.48-2.25 1.58-3.75 1.67-6.43 0.0354-0.893 0.0709-1.79 0.107-2.71 0.0226-0.929 0.0451-1.86 0.0684-2.81 0.0342-0.94 0.0683-1.88 0.104-2.85 0.0825-2.32 0.152-4.64 0.209-6.96z" fill="#060200"/>
</svg>
